<mxfile host="65bd71144e">
    <diagram id="lsMZVMBX44ypop4iRuGD" name="Page-1">
        <mxGraphModel dx="167" dy="185" grid="1" gridSize="10" guides="1" tooltips="1" connect="1" arrows="1" fold="1" page="1" pageScale="1" pageWidth="850" pageHeight="1100" math="0" shadow="0">
            <root>
                <mxCell id="0"/>
                <mxCell id="1" parent="0"/>
                <mxCell id="2" value="IT Support Return Issue" style="swimlane;html=1;childLayout=stackLayout;horizontal=1;startSize=20;horizontalStack=0;rounded=0;shadow=0;labelBackgroundColor=none;strokeWidth=1;fontFamily=Verdana;fontSize=8;align=center;" parent="1" vertex="1">
                    <mxGeometry x="10" y="30" width="810" height="590" as="geometry"/>
                </mxCell>
                <mxCell id="3" style="edgeStyle=orthogonalEdgeStyle;rounded=0;html=1;labelBackgroundColor=none;startArrow=none;startFill=0;startSize=5;endArrow=classicThin;endFill=1;endSize=5;jettySize=auto;orthogonalLoop=1;strokeWidth=1;fontFamily=Verdana;fontSize=8" parent="2" target="15" edge="1">
                    <mxGeometry relative="1" as="geometry">
                        <mxPoint x="95" y="107.00000000000006" as="sourcePoint"/>
                    </mxGeometry>
                </mxCell>
                <mxCell id="22" value="Employee&lt;br&gt;" style="swimlane;html=1;startSize=20;horizontal=0;" parent="2" vertex="1">
                    <mxGeometry y="20" width="810" height="180" as="geometry"/>
                </mxCell>
                <mxCell id="93" value="returns laptop" style="rounded=0;whiteSpace=wrap;html=1;shadow=0;labelBackgroundColor=none;strokeWidth=1;fontFamily=Verdana;fontSize=8;align=center;" parent="22" vertex="1">
                    <mxGeometry x="60" y="39.99999999999994" width="70" height="37" as="geometry"/>
                </mxCell>
                <mxCell id="14" value="can't repair&lt;br&gt;" style="swimlane;html=1;startSize=20;horizontal=0;" parent="2" vertex="1">
                    <mxGeometry y="200" width="810" height="390" as="geometry"/>
                </mxCell>
                <mxCell id="55" value="" style="edgeStyle=none;html=1;" parent="14" target="54" edge="1">
                    <mxGeometry relative="1" as="geometry">
                        <mxPoint x="99.99999999999994" y="62" as="sourcePoint"/>
                    </mxGeometry>
                </mxCell>
                <mxCell id="15" value="receives laptop" style="rounded=1;whiteSpace=wrap;html=1;shadow=0;labelBackgroundColor=none;strokeWidth=1;fontFamily=Verdana;fontSize=8;align=center;" parent="14" vertex="1">
                    <mxGeometry x="60" y="43.49999999999996" width="70" height="37" as="geometry"/>
                </mxCell>
                <mxCell id="98" style="edgeStyle=none;html=1;" parent="14" source="54" edge="1">
                    <mxGeometry relative="1" as="geometry">
                        <mxPoint x="340" y="60" as="targetPoint"/>
                    </mxGeometry>
                </mxCell>
                <mxCell id="107" style="edgeStyle=none;html=1;" parent="14" source="54" target="94" edge="1">
                    <mxGeometry relative="1" as="geometry"/>
                </mxCell>
                <mxCell id="54" value="has defect?" style="rhombus;whiteSpace=wrap;html=1;fontSize=8;fontFamily=Verdana;rounded=1;shadow=0;labelBackgroundColor=none;strokeWidth=1;" parent="14" vertex="1">
                    <mxGeometry x="175" y="21.999999999999957" width="80" height="80" as="geometry"/>
                </mxCell>
                <mxCell id="63" value="&lt;span style=&quot;font-size: 8px;&quot;&gt;with defect&lt;/span&gt;" style="text;html=1;align=center;verticalAlign=middle;resizable=0;points=[];autosize=1;strokeColor=none;fillColor=none;" parent="14" vertex="1">
                    <mxGeometry x="150" y="102" width="60" height="30" as="geometry"/>
                </mxCell>
                <mxCell id="109" style="edgeStyle=none;html=1;" parent="14" source="94" target="108" edge="1">
                    <mxGeometry relative="1" as="geometry"/>
                </mxCell>
                <mxCell id="113" value="" style="edgeStyle=none;html=1;fontSize=8;" parent="14" source="94" target="112" edge="1">
                    <mxGeometry relative="1" as="geometry"/>
                </mxCell>
                <mxCell id="94" value="can the IT Specialist &lt;br&gt;repair it?" style="rhombus;whiteSpace=wrap;html=1;fontSize=8;fontFamily=Verdana;rounded=1;shadow=0;labelBackgroundColor=none;strokeWidth=1;" parent="14" vertex="1">
                    <mxGeometry x="179" y="140" width="72" height="72" as="geometry"/>
                </mxCell>
                <mxCell id="104" style="edgeStyle=none;html=1;" parent="14" source="96" target="102" edge="1">
                    <mxGeometry relative="1" as="geometry"/>
                </mxCell>
                <mxCell id="96" value="Tag as &quot;Return&quot; on Airtable IT and Accountability" style="whiteSpace=wrap;html=1;fontSize=8;fontFamily=Verdana;rounded=1;shadow=0;labelBackgroundColor=none;strokeWidth=1;" parent="14" vertex="1">
                    <mxGeometry x="340" y="40.5" width="80" height="40" as="geometry"/>
                </mxCell>
                <mxCell id="102" value="Tag as &quot;Available&quot; on Airtable Forms" style="whiteSpace=wrap;html=1;fontSize=8;fontFamily=Verdana;rounded=0;shadow=0;labelBackgroundColor=none;strokeWidth=1;" parent="14" vertex="1">
                    <mxGeometry x="520" y="42" width="80" height="40" as="geometry"/>
                </mxCell>
                <mxCell id="106" value="&lt;font style=&quot;font-size: 8px;&quot;&gt;no defect&lt;/font&gt;" style="text;html=1;align=center;verticalAlign=middle;resizable=0;points=[];autosize=1;strokeColor=none;fillColor=none;" parent="14" vertex="1">
                    <mxGeometry x="260" y="30" width="60" height="30" as="geometry"/>
                </mxCell>
                <mxCell id="110" style="edgeStyle=none;html=1;entryX=0.5;entryY=1;entryDx=0;entryDy=0;" parent="14" source="108" target="102" edge="1">
                    <mxGeometry relative="1" as="geometry">
                        <mxPoint x="500" y="110" as="targetPoint"/>
                    </mxGeometry>
                </mxCell>
                <mxCell id="108" value="repair" style="whiteSpace=wrap;html=1;fontSize=8;fontFamily=Verdana;rounded=1;shadow=0;labelBackgroundColor=none;strokeWidth=1;" parent="14" vertex="1">
                    <mxGeometry x="340" y="156" width="80" height="40" as="geometry"/>
                </mxCell>
                <mxCell id="111" value="&lt;font style=&quot;font-size: 8px;&quot;&gt;can repair&lt;/font&gt;" style="text;html=1;align=center;verticalAlign=middle;resizable=0;points=[];autosize=1;strokeColor=none;fillColor=none;" parent="14" vertex="1">
                    <mxGeometry x="260" y="150" width="60" height="30" as="geometry"/>
                </mxCell>
                <mxCell id="112" value="tag as &quot;Defect&quot;" style="whiteSpace=wrap;html=1;fontSize=8;fontFamily=Verdana;rounded=1;shadow=0;labelBackgroundColor=none;strokeWidth=1;" parent="14" vertex="1">
                    <mxGeometry x="167.5" y="250" width="95" height="47.5" as="geometry"/>
                </mxCell>
                <mxCell id="114" value="can't repair&lt;br&gt;" style="text;html=1;align=center;verticalAlign=middle;resizable=0;points=[];autosize=1;strokeColor=none;fillColor=none;fontSize=8;" parent="14" vertex="1">
                    <mxGeometry x="150" y="220" width="60" height="20" as="geometry"/>
                </mxCell>
            </root>
        </mxGraphModel>
    </diagram>
</mxfile>